<svg xmlns="http://www.w3.org/2000/svg" viewBox="0 0 407 407"><style>.a{fill:#FFF;}</style><polygon points="139.4 68.6 91.6 97.5 91.6 39.7 59.8 58.9 59.8 116.7 12 145.6 12 184.1 171.2 87.8 " class="a"/><polygon points="59.8 251.5 12 222.6 12 261.1 59.8 290 59.8 347.8 91.6 367 91.6 174.5 59.8 193.7 " class="a"/><polygon points="123.4 328.5 171.2 357.4 123.4 386.3 155.3 405.5 203 376.6 250.8 405.5 282.6 386.3 123.4 290 " class="a"/><polygon points="266.7 338.1 314.4 309.3 314.4 367 346.3 347.8 346.3 290 394 261.1 394 222.6 234.8 318.9 " class="a"/><polygon points="346.3 116.7 346.3 58.9 314.4 39.7 314.4 232.2 346.3 213 346.3 155.2 394 184.1 394 145.6 " class="a"/><polygon points="282.6 78.2 234.8 49.3 282.6 20.4 250.8 1.2 203 30.1 155.3 1.2 123.4 20.4 282.6 116.7 " class="a"/></svg>