<svg version="1.1" xmlns="http://www.w3.org/2000/svg" xmlns:xlink="http://www.w3.org/1999/xlink" x="0px" y="0px"
	 viewBox="0 0 2812.9 960" style="enable-background:new 0 0 2812.9 960;" xml:space="preserve">
<style type="text/css">
	.st0{fill:#2E2B2C;}
	.st1{enable-background:new    ;}
</style>
<polygon class="st0" points="376.2,231.9 288.6,284.8 288.6,178.9 230.2,214.2 230.2,320.1 142.7,373.1 142.7,443.7 434.6,267.2 "/>
<polygon class="st0" points="230.2,567.3 142.7,514.3 142.7,584.9 230.2,637.9 230.2,743.8 288.6,779.1 288.6,426 230.2,461.3 "/>
<polygon class="st0" points="347,708.5 434.6,761.5 347,814.4 405.4,849.7 492.9,796.8 580.5,849.7 638.9,814.4 347,637.9 "/>
<polygon class="st0" points="609.7,726.2 697.3,673.2 697.3,779.1 755.6,743.8 755.6,637.9 843.2,584.9 843.2,514.3 551.3,690.9 "/>
<polygon class="st0" points="755.6,320.1 755.6,214.2 697.3,178.9 697.3,532 755.6,496.7 755.6,390.7 843.2,443.7 843.2,373.1 "/>
<polygon class="st0" points="638.9,249.5 551.3,196.5 638.9,143.6 580.5,108.3 492.9,161.2 405.4,108.3 347,143.6 638.9,320.1 "/>
<g class="st1">
	<path class="st0" d="M1319.9,302.7l-8.2,18.1c-11.4-4.8-25-9.1-41-12.9s-31.6-5.8-47-5.8c-13.9,0-26.6,1.9-38,5.8
		c-11.4,3.8-21,9-28.9,15.4c-7.9,6.4-13.9,13.9-18.1,22.5c-4.2,8.6-6.3,17.9-6.3,27.8c0,11.7,2.9,21.6,8.8,29.7
		c5.9,8.1,13.7,15,23.4,20.9c9.7,5.9,20.7,11.1,33,15.7c12.3,4.6,24.9,9.3,37.9,14c13,4.8,25.7,10.2,38,16.2c12.3,6,23.3,13.4,33,22
		c9.7,8.6,17.5,18.9,23.4,30.8c5.9,11.9,8.8,26.5,8.8,43.7c0,16.9-3,32.1-9.1,45.6c-6.1,13.6-14.8,25.1-26.1,34.7
		c-11.4,9.5-24.9,16.9-40.7,22c-15.8,5.1-33.4,7.7-52.8,7.7c-15.4,0-29.4-1.5-42.1-4.4s-23.9-6.5-33.8-10.7
		c-9.9-4.2-18.4-8.4-25.6-12.7c-7.1-4.2-12.7-7.4-16.8-9.6l11-20.3c5.9,4,12.9,8.2,21.2,12.4c8.2,4.2,17.1,8.1,26.4,11.5
		c9.4,3.5,19.2,6.3,29.4,8.5c10.3,2.2,20.5,3.3,30.8,3.3c11.7,0,23.8-1.7,36.3-5.2c12.5-3.5,23.8-8.8,34.1-16
		c10.3-7.1,18.7-16.3,25.3-27.5c6.6-11.2,9.9-24.5,9.9-39.9c0-14.7-2.9-27.1-8.8-37.4c-5.9-10.3-13.7-19-23.4-26.1
		c-9.7-7.2-20.7-13.4-33-18.7c-12.3-5.3-24.9-10.4-38-15.1c-13-4.8-25.7-9.7-38-14.8c-12.3-5.1-23.3-11.2-33-18.2
		c-9.7-7-17.5-15.2-23.4-24.8c-5.9-9.5-8.8-21.3-8.8-35.2c0-12.8,2.7-25,8-36.6c5.3-11.5,12.8-21.6,22.5-30.2
		c9.7-8.6,21.4-15.4,34.9-20.3c13.6-5,28.6-7.4,45.1-7.4c8.4,0,17.3,0.6,26.7,1.9c9.4,1.3,18.6,2.9,27.8,5c9.2,2,17.7,4.3,25.6,6.9
		C1308.2,297.6,1314.7,300.2,1319.9,302.7z"/>
	<path class="st0" d="M1408.4,366h19.2v96.8h67.1v17h-67.1v192.5h-19.2V479.8h-46.8v-17h46.8V366z"/>
	<path class="st0" d="M1515.7,566.2c0-15.4,2.9-29.9,8.8-43.4c5.9-13.6,13.8-25.4,23.7-35.5c9.9-10.1,21.5-18.1,34.9-23.9
		c13.4-5.9,27.8-8.8,43.2-8.8c11,0,21.5,1.6,31.3,4.7c9.9,3.1,18.9,7.4,27,12.9c8.1,5.5,15.1,11.8,21.2,19
		c6.1,7.1,10.7,14.8,14,22.8c0-9.2,0.2-18.3,0.5-27.5c0.4-9.2,0.9-18.1,1.7-26.9h16.5v212.8h-18.7v-54.5
		c-6.2,16.1-17.6,29.9-34.1,41.2c-16.5,11.4-36.3,17-59.4,17c-15.8,0-30.3-2.9-43.7-8.8c-13.4-5.9-25-13.8-34.9-23.6
		c-9.9-9.9-17.7-21.5-23.4-34.9C1518.5,595.4,1515.7,581.2,1515.7,566.2z M1534.4,565.6c0,12.8,2.4,24.8,7.1,36
		c4.8,11.2,11.3,20.9,19.5,29.1s18.1,14.8,29.4,19.5c11.4,4.8,23.5,7.2,36.3,7.2c12.8,0,24.9-2.4,36.3-7.2
		c11.4-4.8,21.3-11.3,29.7-19.5c8.4-8.2,15-18,19.8-29.1c4.8-11.2,7.2-23.2,7.2-36c0-12.8-2.4-24.9-7.2-36.3
		c-4.8-11.4-11.4-21.2-19.8-29.4c-8.4-8.2-18.3-14.8-29.7-19.5c-11.4-4.8-23.5-7.1-36.3-7.1c-12.8,0-24.9,2.4-36.3,7.1
		c-11.4,4.8-21.2,11.3-29.4,19.5s-14.8,18.1-19.5,29.4C1536.8,540.7,1534.4,552.8,1534.4,565.6z"/>
	<path class="st0" d="M1921,477.6c-11.4,0.4-22.3,2.4-32.7,6c-10.5,3.7-19.7,8.9-27.8,15.7c-8.1,6.8-14.5,14.8-19.2,24.2
		c-4.8,9.4-7.1,19.7-7.1,31.1v117.7h-18.7V459.5h16c0,1.5,0.1,4.9,0.3,10.4c0.2,5.5,0.3,11.4,0.3,17.6c0,6.2,0.1,12,0.3,17.3
		c0.2,5.3,0.3,8.5,0.3,9.6c8.4-18.3,21.2-32.7,38.2-43.2c17-10.4,34.9-15.9,53.6-16.2L1921,477.6z"/>
	<path class="st0" d="M2104.7,637.7c2.2,2.2,4.3,4.5,6.3,6.9c2,2.4,3.9,4.9,5.8,7.4c-9.5,7.3-20.2,13.2-31.9,17.6
		c-11.7,4.4-24.4,6.6-38,6.6c-15.4,0-29.9-2.9-43.5-8.8c-13.6-5.9-25.4-13.8-35.5-23.6c-10.1-9.9-18-21.5-23.7-34.9
		c-5.7-13.4-8.5-27.8-8.5-43.2c0-15.4,2.8-29.9,8.5-43.5c5.7-13.6,13.6-25.3,23.7-35.2c10.1-9.9,21.9-17.8,35.5-23.6
		c13.6-5.9,28.1-8.8,43.5-8.8c13.6,0,26.3,2.2,38.2,6.6c11.9,4.4,22.6,10.3,32.2,17.6c-1.8,2.6-3.9,4.9-6,7.1
		c-2.2,2.2-4.4,4.8-6.6,7.7c-7.7-6.2-16.5-11.2-26.4-14.8c-9.9-3.7-20.4-5.5-31.4-5.5c-13.2,0-25.4,2.4-36.6,7.1
		c-11.2,4.8-20.9,11.3-29.1,19.5s-14.8,18.1-19.5,29.4c-4.8,11.4-7.1,23.5-7.1,36.3c0,12.8,2.4,24.8,7.1,36
		c4.8,11.2,11.3,20.9,19.5,29.1s18,14.8,29.1,19.5c11.2,4.8,23.4,7.2,36.6,7.2c11,0,21.5-1.7,31.4-5.2
		C2088.2,648.8,2097,643.9,2104.7,637.7z"/>
	<path class="st0" d="M2166.9,385.2c0-4.8,1.6-8.8,4.9-12.1c3.3-3.3,7.2-5,11.6-5c4,0,7.7,1.7,11,5c3.3,3.3,4.9,7.3,4.9,12.1
		c0,4.8-1.6,8.7-4.9,11.8c-3.3,3.1-7,4.7-11,4.7c-4.4,0-8.2-1.6-11.6-4.7C2168.5,393.9,2166.9,390,2166.9,385.2z M2192.2,672.3
		h-18.7V459.5h18.7V672.3z"/>
	<path class="st0" d="M2285.7,366h19.2v96.8h67.1v17h-67.1v192.5h-19.2V479.8h-46.8v-17h46.8V366z"/>
	<path class="st0" d="M2457.8,774.6h-20.9c4.4-9.2,8.2-17.7,11.6-25.6c3.3-7.9,6.5-15.9,9.6-23.9c3.1-8.1,6.5-16.6,10.2-25.6
		c3.7-9,8.1-19.5,13.2-31.6c-16.9-34.1-32.6-68.8-47.3-103.9c-14.7-35.2-30.6-70-47.8-104.5h20.3c9.9,19.4,18.7,37.7,26.4,54.7
		s14.8,33.5,21.5,49.2c6.6,15.8,13,31,19.2,45.7c6.2,14.7,12.6,29.2,19.2,43.5c6.6-14.3,13-28.8,19.2-43.5
		c6.2-14.7,12.6-29.8,19.2-45.4c6.6-15.6,13.7-32,21.2-49.2c7.5-17.2,16.2-35.6,26.1-55h20.9L2457.8,774.6z"/>
</g>
</svg>
