<?xml version="1.0" encoding="UTF-8"?>
<svg width="2458px" height="742px" viewBox="0 0 2458 742" version="1.1" xmlns="http://www.w3.org/2000/svg" xmlns:xlink="http://www.w3.org/1999/xlink">
    <!-- Generator: Sketch 46 (44423) - http://www.bohemiancoding.com/sketch -->
    <title>logo-wordmark</title>
    <desc>Created with Sketch.</desc>
    <defs></defs>
    <g id="Page-1" stroke="none" stroke-width="1" fill="none" fill-rule="evenodd">
        <g id="logo-wordmark" fill-rule="nonzero" fill="#FFFFFF">
            <polygon id="Shape" points="234.2 123.9 146.6 176.8 146.6 70.9 88.2 106.2 88.2 212.1 0.7 265.1 0.7 335.7 292.6 159.2"></polygon>
            <polygon id="Shape" points="88.2 459.3 0.7 406.3 0.7 476.9 88.2 529.9 88.2 635.8 146.6 671.1 146.6 318 88.2 353.3"></polygon>
            <polygon id="Shape" points="205 600.5 292.6 653.5 205 706.4 263.4 741.7 350.9 688.8 438.5 741.7 496.9 706.4 205 529.9"></polygon>
            <polygon id="Shape" points="467.7 618.2 555.3 565.2 555.3 671.1 613.6 635.8 613.6 529.9 701.2 476.9 701.2 406.3 409.3 582.9"></polygon>
            <polygon id="Shape" points="613.6 212.1 613.6 106.2 555.3 70.9 555.3 424 613.6 388.7 613.6 282.7 701.2 335.7 701.2 265.1"></polygon>
            <polygon id="Shape" points="496.9 141.5 409.3 88.5 496.9 35.6 438.5 0.3 350.9 53.2 263.4 0.3 205 35.6 496.9 212.1"></polygon>
            <g id="Group" transform="translate(949.000000, 173.000000)">
                <path d="M228.9,21.7 L220.7,39.8 C209.3,35 195.7,30.7 179.7,26.9 C163.7,23.1 148.1,21.1 132.7,21.1 C118.8,21.1 106.1,23 94.7,26.9 C83.3,30.7 73.7,35.9 65.8,42.3 C57.9,48.7 51.9,56.2 47.7,64.8 C43.5,73.4 41.4,82.7 41.4,92.6 C41.4,104.3 44.3,114.2 50.2,122.3 C56.1,130.4 63.9,137.3 73.6,143.2 C83.3,149.1 94.3,154.3 106.6,158.9 C118.9,163.5 131.5,168.2 144.5,172.9 C157.5,177.7 170.2,183.1 182.5,189.1 C194.8,195.1 205.8,202.5 215.5,211.1 C225.2,219.7 233,230 238.9,241.9 C244.8,253.8 247.7,268.4 247.7,285.6 C247.7,302.5 244.7,317.7 238.6,331.2 C232.5,344.8 223.8,356.3 212.5,365.9 C201.1,375.4 187.6,382.8 171.8,387.9 C156,393 138.4,395.6 119,395.6 C103.6,395.6 89.6,394.1 76.9,391.2 C64.2,388.3 53,384.7 43.1,380.5 C33.2,376.3 24.7,372.1 17.5,367.8 C10.4,363.6 4.8,360.4 0.7,358.2 L11.7,337.9 C17.6,341.9 24.6,346.1 32.9,350.3 C41.1,354.5 50,358.4 59.3,361.8 C68.7,365.3 78.5,368.1 88.7,370.3 C99,372.5 109.2,373.6 119.5,373.6 C131.2,373.6 143.3,371.9 155.8,368.4 C168.3,364.9 179.6,359.6 189.9,352.4 C200.2,345.3 208.6,336.1 215.2,324.9 C221.8,313.7 225.1,300.4 225.1,285 C225.1,270.3 222.2,257.9 216.3,247.6 C210.4,237.3 202.6,228.6 192.9,221.5 C183.2,214.3 172.2,208.1 159.9,202.8 C147.6,197.5 135,192.4 121.9,187.7 C108.9,182.9 96.2,178 83.9,172.9 C71.6,167.8 60.6,161.7 50.9,154.7 C41.2,147.7 33.4,139.5 27.5,129.9 C21.6,120.4 18.7,108.6 18.7,94.7 C18.7,81.9 21.4,69.7 26.7,58.1 C32,46.6 39.5,36.5 49.2,27.9 C58.9,19.3 70.6,12.5 84.1,7.6 C97.7,2.6 112.7,0.2 129.2,0.2 C137.6,0.2 146.5,0.8 155.9,2.1 C165.3,3.4 174.5,5 183.7,7.1 C192.9,9.1 201.4,11.4 209.3,14 C217.2,16.6 223.7,19.2 228.9,21.7 Z" id="Shape"></path>
                <polygon id="Shape" points="317.4 85 336.6 85 336.6 181.8 403.7 181.8 403.7 198.8 336.6 198.8 336.6 391.3 317.4 391.3 317.4 198.8 270.6 198.8 270.6 181.8 317.4 181.8"></polygon>
                <path d="M424.7,285.2 C424.7,269.8 427.6,255.3 433.5,241.8 C439.4,228.2 447.3,216.4 457.2,206.3 C467.1,196.2 478.7,188.2 492.1,182.4 C505.5,176.5 519.9,173.6 535.3,173.6 C546.3,173.6 556.8,175.2 566.6,178.3 C576.5,181.4 585.5,185.7 593.6,191.2 C601.7,196.7 608.7,203 614.8,210.2 C620.9,217.3 625.5,225 628.8,233 C628.8,223.8 629,214.7 629.3,205.5 C629.7,196.3 630.2,187.4 631,178.6 L647.5,178.6 L647.5,391.4 L628.8,391.4 L628.8,336.9 C622.6,353 611.2,366.8 594.7,378.1 C578.2,389.5 558.4,395.1 535.3,395.1 C519.5,395.1 505,392.2 491.6,386.3 C478.2,380.4 466.6,372.5 456.7,362.7 C446.8,352.8 439,341.2 433.3,327.8 C427.5,314.4 424.7,300.2 424.7,285.2 Z M443.4,284.6 C443.4,297.4 445.8,309.4 450.5,320.6 C455.3,331.8 461.8,341.5 470,349.7 C478.2,357.9 488.1,364.5 499.4,369.2 C510.8,374 522.9,376.4 535.7,376.4 C548.5,376.4 560.6,374 572,369.2 C583.4,364.4 593.3,357.9 601.7,349.7 C610.1,341.5 616.7,331.7 621.5,320.6 C626.3,309.4 628.7,297.4 628.7,284.6 C628.7,271.8 626.3,259.7 621.5,248.3 C616.7,236.9 610.1,227.1 601.7,218.9 C593.3,210.7 583.4,204.1 572,199.4 C560.6,194.6 548.5,192.3 535.7,192.3 C522.9,192.3 510.8,194.7 499.4,199.4 C488,204.2 478.2,210.7 470,218.9 C461.8,227.1 455.2,237 450.5,248.3 C445.8,259.7 443.4,271.8 443.4,284.6 Z" id="Shape"></path>
                <path d="M830,196.6 C818.6,197 807.7,199 797.3,202.6 C786.8,206.3 777.6,211.5 769.5,218.3 C761.4,225.1 755,233.1 750.3,242.5 C745.5,251.9 743.2,262.2 743.2,273.6 L743.2,391.3 L724.5,391.3 L724.5,178.5 L740.5,178.5 C740.5,180 740.6,183.4 740.8,188.9 C741,194.4 741.1,200.3 741.1,206.5 C741.1,212.7 741.2,218.5 741.4,223.8 C741.6,229.1 741.7,232.3 741.7,233.4 C750.1,215.1 762.9,200.7 779.9,190.2 C796.9,179.8 814.8,174.3 833.5,174 L830,196.6 Z" id="Shape"></path>
                <path d="M1013.7,356.7 C1015.9,358.9 1018,361.2 1020,363.6 C1022,366 1023.9,368.5 1025.8,371 C1016.3,378.3 1005.6,384.2 993.9,388.6 C982.2,393 969.5,395.2 955.9,395.2 C940.5,395.2 926,392.3 912.4,386.4 C898.8,380.5 887,372.6 876.9,362.8 C866.8,352.9 858.9,341.3 853.2,327.9 C847.5,314.5 844.7,300.1 844.7,284.7 C844.7,269.3 847.5,254.8 853.2,241.2 C858.9,227.6 866.8,215.9 876.9,206 C887,196.1 898.8,188.2 912.4,182.4 C926,176.5 940.5,173.6 955.9,173.6 C969.5,173.6 982.2,175.8 994.1,180.2 C1006,184.6 1016.7,190.5 1026.3,197.8 C1024.5,200.4 1022.4,202.7 1020.3,204.9 C1018.1,207.1 1015.9,209.7 1013.7,212.6 C1006,206.4 997.2,201.4 987.3,197.8 C977.4,194.1 966.9,192.3 955.9,192.3 C942.7,192.3 930.5,194.7 919.3,199.4 C908.1,204.2 898.4,210.7 890.2,218.9 C882,227.1 875.4,237 870.7,248.3 C865.9,259.7 863.6,271.8 863.6,284.6 C863.6,297.4 866,309.4 870.7,320.6 C875.5,331.8 882,341.5 890.2,349.7 C898.4,357.9 908.2,364.5 919.3,369.2 C930.5,374 942.7,376.4 955.9,376.4 C966.9,376.4 977.4,374.7 987.3,371.2 C997.2,367.8 1006,362.9 1013.7,356.7 Z" id="Shape"></path>
                <path d="M1075.9,104.2 C1075.9,99.4 1077.5,95.4 1080.8,92.1 C1084.1,88.8 1088,87.1 1092.4,87.1 C1096.4,87.1 1100.1,88.8 1103.4,92.1 C1106.7,95.4 1108.3,99.4 1108.3,104.2 C1108.3,109 1106.7,112.9 1103.4,116 C1100.1,119.1 1096.4,120.7 1092.4,120.7 C1088,120.7 1084.2,119.1 1080.8,116 C1077.5,112.9 1075.9,109 1075.9,104.2 Z M1101.2,391.3 L1082.5,391.3 L1082.5,178.5 L1101.2,178.5 L1101.2,391.3 Z" id="Shape"></path>
                <polygon id="Shape" points="1194.7 85 1213.9 85 1213.9 181.8 1281 181.8 1281 198.8 1213.9 198.8 1213.9 391.3 1194.7 391.3 1194.7 198.8 1147.9 198.8 1147.9 181.8 1194.7 181.8"></polygon>
                <path d="M1366.8,493.6 L1345.9,493.6 C1350.3,484.4 1354.1,475.9 1357.5,468 C1360.8,460.1 1364,452.1 1367.1,444.1 C1370.2,436 1373.6,427.5 1377.3,418.5 C1381,409.5 1385.4,399 1390.5,386.9 C1373.6,352.8 1357.9,318.1 1343.2,283 C1328.5,247.8 1312.6,213 1295.4,178.5 L1315.7,178.5 C1325.6,197.9 1334.4,216.2 1342.1,233.2 C1349.8,250.2 1356.9,266.7 1363.6,282.4 C1370.2,298.2 1376.6,313.4 1382.8,328.1 C1389,342.8 1395.4,357.3 1402,371.6 C1408.6,357.3 1415,342.8 1421.2,328.1 C1427.4,313.4 1433.8,298.3 1440.4,282.7 C1447,267.1 1454.1,250.7 1461.6,233.5 C1469.1,216.3 1477.8,197.9 1487.7,178.5 L1508.6,178.5 L1366.8,493.6 Z" id="Shape"></path>
            </g>
        </g>
    </g>
</svg>