<?xml version="1.0" encoding="UTF-8"?>
<svg width="100px" height="100px" viewBox="0 0 100 100" version="1.1" xmlns="http://www.w3.org/2000/svg" xmlns:xlink="http://www.w3.org/1999/xlink">
    <!-- Generator: Sketch 49 (51002) - http://www.bohemiancoding.com/sketch -->
    <title>all</title>
    <desc>Created with Sketch.</desc>
    <defs></defs>
    <g id="all" stroke="none" stroke-width="1" fill="none" fill-rule="evenodd">
        <g transform="translate(24.000000, 24.000000)" fill="#1186C9" fill-rule="nonzero" id="Rectangle">
            <path d="M3,3 L3,9 L9,9 L9,3 L3,3 Z M3,0 L9,0 C10.6568542,0 12,1.34314575 12,3 L12,9 C12,10.6568542 10.6568542,12 9,12 L3,12 C1.34314575,12 0,10.6568542 0,9 L0,3 C0,1.34314575 1.34314575,0 3,0 Z"></path>
            <path d="M3,24 L3,30 L9,30 L9,24 L3,24 Z M3,21 L9,21 C10.6568542,21 12,22.3431458 12,24 L12,30 C12,31.6568542 10.6568542,33 9,33 L3,33 C1.34314575,33 0,31.6568542 0,30 L0,24 C0,22.3431458 1.34314575,21 3,21 Z"></path>
            <path d="M3,44 L3,50 L9,50 L9,44 L3,44 Z M3,41 L9,41 C10.6568542,41 12,42.3431458 12,44 L12,50 C12,51.6568542 10.6568542,53 9,53 L3,53 C1.34314575,53 0,51.6568542 0,50 L0,44 C0,42.3431458 1.34314575,41 3,41 Z"></path>
            <path d="M24,3 L24,9 L30,9 L30,3 L24,3 Z M24,0 L30,0 C31.6568542,0 33,1.34314575 33,3 L33,9 C33,10.6568542 31.6568542,12 30,12 L24,12 C22.3431458,12 21,10.6568542 21,9 L21,3 C21,1.34314575 22.3431458,0 24,0 Z"></path>
            <path d="M24,24 L24,30 L30,30 L30,24 L24,24 Z M24,21 L30,21 C31.6568542,21 33,22.3431458 33,24 L33,30 C33,31.6568542 31.6568542,33 30,33 L24,33 C22.3431458,33 21,31.6568542 21,30 L21,24 C21,22.3431458 22.3431458,21 24,21 Z"></path>
            <path d="M24,44 L24,50 L30,50 L30,44 L24,44 Z M24,41 L30,41 C31.6568542,41 33,42.3431458 33,44 L33,50 C33,51.6568542 31.6568542,53 30,53 L24,53 C22.3431458,53 21,51.6568542 21,50 L21,44 C21,42.3431458 22.3431458,41 24,41 Z"></path>
            <path d="M44,3 L44,9 L50,9 L50,3 L44,3 Z M44,0 L50,0 C51.6568542,0 53,1.34314575 53,3 L53,9 C53,10.6568542 51.6568542,12 50,12 L44,12 C42.3431458,12 41,10.6568542 41,9 L41,3 C41,1.34314575 42.3431458,0 44,0 Z"></path>
            <path d="M44,24 L44,30 L50,30 L50,24 L44,24 Z M44,21 L50,21 C51.6568542,21 53,22.3431458 53,24 L53,30 C53,31.6568542 51.6568542,33 50,33 L44,33 C42.3431458,33 41,31.6568542 41,30 L41,24 C41,22.3431458 42.3431458,21 44,21 Z"></path>
            <path d="M44,44 L44,50 L50,50 L50,44 L44,44 Z M44,41 L50,41 C51.6568542,41 53,42.3431458 53,44 L53,50 C53,51.6568542 51.6568542,53 50,53 L44,53 C42.3431458,53 41,51.6568542 41,50 L41,44 C41,42.3431458 42.3431458,41 44,41 Z"></path>
        </g>
    </g>
</svg>