<?xml version="1.0" encoding="UTF-8"?>
<svg width="100px" height="100px" viewBox="0 0 100 100" version="1.1" xmlns="http://www.w3.org/2000/svg" xmlns:xlink="http://www.w3.org/1999/xlink">
    <!-- Generator: Sketch 49 (51002) - http://www.bohemiancoding.com/sketch -->
    <title>b</title>
    <desc>Created with Sketch.</desc>
    <defs></defs>
    <g id="b" stroke="none" stroke-width="1" fill="none" fill-rule="evenodd">
        <path d="M39.512,35.32 L50.792,35.32 C54.4400182,35.32 57.1519911,36.0799924 58.928,37.6 C60.7040089,39.1200076 61.592,41.2719861 61.592,44.056 C61.592,45.7200083 61.1200047,47.1919936 60.176,48.472 C59.2319953,49.7520064 57.9280083,50.5519984 56.264,50.872 L56.264,50.92 C58.1200093,51.2720018 59.6079944,52.1199933 60.728,53.464 C61.8480056,54.8080067 62.408,56.3599912 62.408,58.12 C62.408,60.8400136 61.3840102,62.999992 59.336,64.6 C57.2879898,66.200008 54.4240184,67 50.744,67 L39.512,67 L39.512,35.32 Z M50.84,49.24 C53.1120114,49.24 54.7999945,48.8160042 55.904,47.968 C57.0080055,47.1199958 57.56,45.8160088 57.56,44.056 C57.56,40.6319829 55.3200224,38.92 50.84,38.92 L43.352,38.92 L43.352,49.24 L50.84,49.24 Z M51.656,63.4 C53.8960112,63.4 55.5759944,62.9440046 56.696,62.032 C57.8160056,61.1199954 58.376,59.8160085 58.376,58.12 C58.376,56.4239915 57.8160056,55.1200046 56.696,54.208 C55.5759944,53.2959954 53.8960112,52.84 51.656,52.84 L43.352,52.84 L43.352,63.4 L51.656,63.4 Z" id="B" fill="#1186C9"></path>
    </g>
</svg>