<?xml version="1.0" encoding="UTF-8"?>
<svg width="100px" height="100px" viewBox="0 0 100 100" version="1.1" xmlns="http://www.w3.org/2000/svg" xmlns:xlink="http://www.w3.org/1999/xlink">
    <!-- Generator: Sketch 49 (51002) - http://www.bohemiancoding.com/sketch -->
    <title>c</title>
    <desc>Created with Sketch.</desc>
    <defs></defs>
    <g id="c" stroke="none" stroke-width="1" fill="none" fill-rule="evenodd">
        <path d="M64.256,58.888 C63.263995,61.5760134 61.6320114,63.6799924 59.36,65.2 C57.0879886,66.7200076 54.4640149,67.48 51.488,67.48 C48.5119851,67.48 45.920011,66.8160066 43.712,65.488 C41.503989,64.1599934 39.800006,62.2720122 38.6,59.824 C37.399994,57.3759878 36.8,54.4880166 36.8,51.16 C36.8,47.8639835 37.399994,44.9840123 38.6,42.52 C39.800006,40.0559877 41.503989,38.1600066 43.712,36.832 C45.920011,35.5039934 48.4799854,34.84 51.392,34.84 C54.4320152,34.84 56.9839897,35.4639938 59.048,36.712 C61.1120103,37.9600062 62.6559949,39.7999878 63.68,42.232 L59.888,44.008 C59.1839965,42.1519907 58.1600067,40.7600046 56.816,39.832 C55.4719933,38.9039954 53.7600104,38.44 51.68,38.44 C49.5039891,38.44 47.6000082,38.943995 45.968,39.952 C44.3359918,40.960005 43.0720045,42.4239904 42.176,44.344 C41.2799955,46.2640096 40.832,48.5359869 40.832,51.16 C40.832,55.1280198 41.7839905,58.2399887 43.688,60.496 C45.5920095,62.7520113 48.1919835,63.88 51.488,63.88 C53.6320107,63.88 55.4879922,63.3360054 57.056,62.248 C58.6240078,61.1599946 59.7439966,59.5600106 60.416,57.448 L64.256,58.888 Z" id="C" fill="#1186C9"></path>
    </g>
</svg>