<?xml version="1.0" encoding="UTF-8"?>
<svg width="100px" height="100px" viewBox="0 0 100 100" version="1.1" xmlns="http://www.w3.org/2000/svg" xmlns:xlink="http://www.w3.org/1999/xlink">
    <!-- Generator: Sketch 49 (51002) - http://www.bohemiancoding.com/sketch -->
    <title>cleaning</title>
    <desc>Created with Sketch.</desc>
    <defs></defs>
    <g id="cleaning" stroke="none" stroke-width="1" fill="none" fill-rule="evenodd">
        <g transform="translate(28.000000, 12.000000)" fill="#1186C9" fill-rule="nonzero">
            <path d="M28,35 L19,35 L19.5393003,40.1682949 C24.524545,42.3757343 28,47.4715383 28,53.3793103 L28,65 L39.8695652,65 L43,35 L37,35 L37,49 C37,50.6568542 35.6568542,52 34,52 L31,52 C29.3431458,52 28,50.6568542 28,49 L28,35 Z M31,35 L31,49 L34,49 L34,35 C34,33.3431458 35.3431458,32 37,32 L43,32 C44.7800183,32 46.1685375,33.5409471 45.9837995,35.311353 L42.8533647,65.311353 C42.6939193,66.8393713 41.4058799,68 39.8695652,68 L28,68 C26.3431458,68 25,66.6568542 25,65 L25,53.3793103 C25,48.7768567 22.3328831,44.6862238 18.3246653,42.9114066 C17.3419195,42.4762521 16.667046,41.5486224 16.5555009,40.4796479 L16.0162005,35.311353 C15.8314625,33.5409471 17.2199817,32 19,32 L28,32 C29.6568542,32 31,33.3431458 31,35 Z" id="Combined-Shape"></path>
            <path d="M12,2.48828125 C12,1.38371175 12.8954305,0.48828125 14,0.48828125 C15.1045695,0.48828125 16,1.38371175 16,2.48828125 L16,39.5699986 C16,40.6745681 15.1045695,41.5699986 14,41.5699986 C12.8954305,41.5699986 12,40.6745681 12,39.5699986 L12,2.48828125 Z" id="Line-2"></path>
            <path d="M3,53.3793103 L3,72 L25,72 L25,53.3793103 C25,47.0946908 20.0751322,42 14,42 C7.92486775,42 3,47.0946908 3,53.3793103 Z M0,53.3793103 C0,45.4601677 6.24482881,39 14,39 C21.7551712,39 28,45.4601677 28,53.3793103 L28,72 C28,73.6568542 26.6568542,75 25,75 L3,75 C1.34314575,75 0,73.6568542 0,72 L0,53.3793103 Z" id="Combined-Shape"></path>
            <path d="M6,58.4938904 C6,57.6654633 6.67157288,56.9938904 7.5,56.9938904 C8.32842712,56.9938904 9,57.6654633 9,58.4938904 L9,72.9367087 C9,73.7651359 8.32842712,74.4367087 7.5,74.4367087 C6.67157288,74.4367087 6,73.7651359 6,72.9367087 L6,58.4938904 Z" id="Line-2-Copy"></path>
            <path d="M12,58.4938904 C12,57.6654633 12.6715729,56.9938904 13.5,56.9938904 C14.3284271,56.9938904 15,57.6654633 15,58.4938904 L15,72.9367087 C15,73.7651359 14.3284271,74.4367087 13.5,74.4367087 C12.6715729,74.4367087 12,73.7651359 12,72.9367087 L12,58.4938904 Z" id="Line-2-Copy"></path>
            <path d="M19,58.4938904 C19,57.6654633 19.6715729,56.9938904 20.5,56.9938904 C21.3284271,56.9938904 22,57.6654633 22,58.4938904 L22,72.9367087 C22,73.7651359 21.3284271,74.4367087 20.5,74.4367087 C19.6715729,74.4367087 19,73.7651359 19,72.9367087 L19,58.4938904 Z" id="Line-2-Copy"></path>
            <path d="M48.5,33 C48.5,33.8284271 47.8284271,34.5 47,34.5 C46.1715729,34.5 45.5,33.8284271 45.5,33 C45.5,24.9814013 39.2211424,18.5 31.5,18.5 C23.7788576,18.5 17.5,24.9814013 17.5,33 C17.5,33.8284271 16.8284271,34.5 16,34.5 C15.1715729,34.5 14.5,33.8284271 14.5,33 C14.5,23.3454867 22.1003152,15.5 31.5,15.5 C40.8996848,15.5 48.5,23.3454867 48.5,33 Z" id="Oval-2"></path>
            <path d="M31,33 L31,49 L34,49 L34,33 L31,33 Z M31,30 L34,30 C35.6568542,30 37,31.3431458 37,33 L37,49 C37,50.6568542 35.6568542,52 34,52 L31,52 C29.3431458,52 28,50.6568542 28,49 L28,33 C28,31.3431458 29.3431458,30 31,30 Z" id="Rectangle-4"></path>
        </g>
    </g>
</svg>