<?xml version="1.0" encoding="UTF-8"?>
<svg width="100px" height="100px" viewBox="0 0 100 100" version="1.1" xmlns="http://www.w3.org/2000/svg" xmlns:xlink="http://www.w3.org/1999/xlink">
    <!-- Generator: Sketch 49 (51002) - http://www.bohemiancoding.com/sketch -->
    <title>d</title>
    <desc>Created with Sketch.</desc>
    <defs></defs>
    <g id="d" stroke="none" stroke-width="1" fill="none" fill-rule="evenodd">
        <path d="M48.104,35.32 C53.096025,35.32 56.9999859,36.6959862 59.816,39.448 C62.6320141,42.2000138 64.04,46.1039747 64.04,51.16 C64.04,56.2160253 62.6320141,60.1199862 59.816,62.872 C56.9999859,65.6240138 53.096025,67 48.104,67 L37.88,67 L37.88,35.32 L48.104,35.32 Z M48.488,63.4 C52.1040181,63.4 54.9279898,62.3200108 56.96,60.16 C58.9920102,57.9999892 60.008,55.0000192 60.008,51.16 C60.008,47.3199808 58.9920102,44.3200108 56.96,42.16 C54.9279898,39.9999892 52.1040181,38.92 48.488,38.92 L41.72,38.92 L41.72,63.4 L48.488,63.4 Z" id="D" fill="#1186C9"></path>
    </g>
</svg>