<?xml version="1.0" encoding="UTF-8"?>
<svg width="100px" height="100px" viewBox="0 0 100 100" version="1.1" xmlns="http://www.w3.org/2000/svg" xmlns:xlink="http://www.w3.org/1999/xlink">
    <!-- Generator: Sketch 49 (51002) - http://www.bohemiancoding.com/sketch -->
    <title>furniture-rental</title>
    <desc>Created with Sketch.</desc>
    <defs></defs>
    <g id="furniture-rental" stroke="none" stroke-width="1" fill="none" fill-rule="evenodd">
        <g id="furniture" transform="translate(22.000000, 20.000000)" fill="#1186C9" fill-rule="nonzero">
            <path d="M50.2222222,7.66666667 L53,7.66666667 L53,3 L3,3 L3,7.66666667 L5.77777778,7.66666667 L5.77777778,59 L50.2222222,59 L50.2222222,7.66666667 Z M53.2222222,59 C53.2222222,60.6568542 51.8790765,62 50.2222222,62 L5.77777778,62 C4.12092353,62 2.77777778,60.6568542 2.77777778,59 L2.77777778,10.6585609 C1.2246952,10.5448443 0,9.24877691 0,7.66666667 L0,3 C0,1.34314575 1.34314575,0 3,0 L53,0 C54.6568542,0 56,1.34314575 56,3 L56,7.66666667 C56,9.24877691 54.7753048,10.5448443 53.2222222,10.6585609 L53.2222222,59 Z" id="Combined-Shape"></path>
            <path d="M10,37 L10,54 L45,54 L45,37 L10,37 Z M10,34 L45,34 C46.6568542,34 48,35.3431458 48,37 L48,54 C48,55.6568542 46.6568542,57 45,57 L10,57 C8.34314575,57 7,55.6568542 7,54 L7,37 C7,35.3431458 8.34314575,34 10,34 Z" id="Rectangle-6-Copy-3"></path>
            <path d="M10,11 L10,28 L45,28 L45,11 L10,11 Z M10,8 L45,8 C46.6568542,8 48,9.34314575 48,11 L48,28 C48,29.6568542 46.6568542,31 45,31 L10,31 C8.34314575,31 7,29.6568542 7,28 L7,11 C7,9.34314575 8.34314575,8 10,8 Z" id="Rectangle-6-Copy-3"></path>
            <path d="M27.5,23 C25.5670034,23 24,21.4329966 24,19.5 C24,17.5670034 25.5670034,16 27.5,16 C29.4329966,16 31,17.5670034 31,19.5 C31,21.4329966 29.4329966,23 27.5,23 Z" id="Oval-8"></path>
            <path d="M27.5,48 C25.5670034,48 24,46.4329966 24,44.5 C24,42.5670034 25.5670034,41 27.5,41 C29.4329966,41 31,42.5670034 31,44.5 C31,46.4329966 29.4329966,48 27.5,48 Z" id="Oval-8"></path>
        </g>
    </g>
</svg>