<?xml version="1.0" encoding="UTF-8"?>
<svg width="100px" height="100px" viewBox="0 0 100 100" version="1.1" xmlns="http://www.w3.org/2000/svg" xmlns:xlink="http://www.w3.org/1999/xlink">
    <!-- Generator: Sketch 49 (51002) - http://www.bohemiancoding.com/sketch -->
    <title>g</title>
    <desc>Created with Sketch.</desc>
    <defs></defs>
    <g id="g" stroke="none" stroke-width="1" fill="none" fill-rule="evenodd">
        <path d="M63.584,51.016 L63.584,67 L60.704,67 L60.56,62.728 C59.6319954,64.2640077 58.3280084,65.4399959 56.648,66.256 C54.9679916,67.0720041 52.9440118,67.48 50.576,67.48 C47.5999851,67.48 45.008011,66.8160066 42.8,65.488 C40.591989,64.1599934 38.888006,62.2720122 37.688,59.824 C36.487994,57.3759878 35.888,54.4880166 35.888,51.16 C35.888,47.8639835 36.5039938,44.9840123 37.736,42.52 C38.9680062,40.0559877 40.6959889,38.1600066 42.92,36.832 C45.1440111,35.5039934 47.7279853,34.84 50.672,34.84 C53.8080157,34.84 56.3919898,35.4319941 58.424,36.616 C60.4560102,37.8000059 62.0959938,39.6239877 63.344,42.088 L59.84,44.008 C59.1359965,42.215991 57.9920079,40.8400048 56.408,39.88 C54.8239921,38.9199952 52.9120112,38.44 50.672,38.44 C48.5279893,38.44 46.6480081,38.9519949 45.032,39.976 C43.4159919,41.0000051 42.1600045,42.4639905 41.264,44.368 C40.3679955,46.2720095 39.92,48.5359869 39.92,51.16 C39.92,55.1920202 40.8479907,58.3199889 42.704,60.544 C44.5600093,62.7680111 47.2319826,63.88 50.72,63.88 C53.4720138,63.88 55.7199913,63.176007 57.464,61.768 C59.2080087,60.359993 60.08,58.3440131 60.08,55.72 L60.08,54.616 L50,54.616 L50,51.016 L63.584,51.016 Z" id="G" fill="#1186C9"></path>
    </g>
</svg>