<?xml version="1.0" encoding="UTF-8"?>
<svg width="100px" height="100px" viewBox="0 0 100 100" version="1.1" xmlns="http://www.w3.org/2000/svg" xmlns:xlink="http://www.w3.org/1999/xlink">
    <!-- Generator: Sketch 49 (51002) - http://www.bohemiancoding.com/sketch -->
    <title>j</title>
    <desc>Created with Sketch.</desc>
    <defs></defs>
    <g id="j" stroke="none" stroke-width="1" fill="none" fill-rule="evenodd">
        <path d="M58.736,56.152 C58.736,59.7040178 57.7840095,62.47999 55.88,64.48 C53.9759905,66.48001 51.3440168,67.48 47.984,67.48 C44.9439848,67.48 42.5920083,66.7360074 40.928,65.248 C39.2639917,63.7599926 38.432,61.7040131 38.432,59.08 C38.432,58.1519954 38.5119992,57.3040038 38.672,56.536 L42.224,55.816 C42.0959994,56.9040054 42.032,57.6719978 42.032,58.12 C42.032,60.0720098 42.4959954,61.5199953 43.424,62.464 C44.3520046,63.4080047 45.8239899,63.88 47.84,63.88 C50.4640131,63.88 52.2959948,63.176007 53.336,61.768 C54.3760052,60.359993 54.896,58.1680149 54.896,55.192 L54.896,35.32 L58.736,35.32 L58.736,56.152 Z" id="J" fill="#1186C9"></path>
    </g>
</svg>