<?xml version="1.0" encoding="UTF-8"?>
<svg width="100px" height="100px" viewBox="0 0 100 100" version="1.1" xmlns="http://www.w3.org/2000/svg" xmlns:xlink="http://www.w3.org/1999/xlink">
    <!-- Generator: Sketch 49 (51002) - http://www.bohemiancoding.com/sketch -->
    <title>laundry</title>
    <desc>Created with Sketch.</desc>
    <defs></defs>
    <g id="laundry" stroke="none" stroke-width="1" fill="none" fill-rule="evenodd">
        <g transform="translate(15.000000, 21.000000)" fill="#1186C9" fill-rule="nonzero">
            <path d="M42.9775785,53 L54.5802816,53 L53.664127,25.0219865 L58.2105937,29.5684532 L67.8895493,19.8894976 L53.0087826,5.00873089 L53.0008842,4.76752608 L52.715429,4.71537731 L43.3256887,3 C42.4714734,6.4240474 39.363987,8.96165425 35.6613239,8.96165425 C31.9652474,8.96165425 28.8622319,6.43306753 28.0015391,3.01826442 L18.2730282,4.76413692 L3,19.8894976 L12.6789556,29.5684532 L17.6032729,24.6441359 L17.3951468,31 L37.5,31 C40.5375661,31 43,33.4624339 43,36.5 C43,38.0760283 42.3371105,39.4972305 41.2749381,40.5 C42.3371105,41.5027695 43,42.9239717 43,44.5 C43,46.0760283 42.3371105,47.4972305 41.2749381,48.5 C42.3371105,49.5027695 43,50.9239717 43,52.5 C43,52.6685448 42.9924187,52.835319 42.9775785,53 Z M10.5576353,31.6897735 L0.878679656,22.0108179 C-0.292893219,20.839245 -0.292893219,18.9397501 0.878679656,17.7681772 L16.0778741,2.56898281 C16.7110346,1.93582229 17.5568003,1.64484471 18.3853721,1.69605005 L27.4716264,0.0654365235 C29.0230359,-0.212978446 30.5253319,0.756659658 30.9105597,2.28505283 C31.4503326,4.42660452 33.40046,5.96165425 35.6613239,5.96165425 C37.9264623,5.96165425 39.8792779,4.4208337 40.4149022,2.27383061 C40.7979814,0.738291188 42.3079883,-0.235570555 43.8648249,0.0488422374 L52.8839873,1.69652001 C53.1171467,1.71150865 53.3488897,1.7536001 53.5740938,1.82279436 C54.5226418,2.00730483 55.2971445,2.62856262 55.6998552,3.45716282 L70.0108696,17.7681772 C71.1824425,18.9397501 71.1824425,20.839245 70.0108696,22.0108179 L60.331914,31.6897735 C59.4044001,32.6172874 58.0206527,32.8105047 56.9030561,32.2694252 L57.5786745,52.9018161 C57.6341594,54.5962435 56.2756172,56 54.5802816,56 L42.9775785,56 C41.2144254,56 39.8314408,54.486784 39.9896858,52.7307466 C39.9965382,52.6547065 40,52.5777716 40,52.5 C40,51.8000706 39.7149685,51.1529832 39.2154945,50.6814426 C37.9614193,49.4975027 37.9614193,47.5024973 39.2154945,46.3185574 C39.7149685,45.8470168 40,45.1999294 40,44.5 C40,43.8000706 39.7149685,43.1529832 39.2154945,42.6814426 C37.9614193,41.4975027 37.9614193,39.5024973 39.2154945,38.3185574 C39.7149685,37.8470168 40,37.1999294 40,36.5 C40,35.1192881 38.8807119,34 37.5,34 L17.3951468,34 C16.0564599,34 14.9277687,33.1247373 14.5394442,31.9222345 C13.3618675,32.8554055 11.6457802,32.7779184 10.5576353,31.6897735 Z" id="Combined-Shape"></path>
            <path d="M8.5,50 C7.11928813,50 6,51.1192881 6,52.5 C6,53.8807119 7.11928813,55 8.5,55 L37.5,55 C38.8807119,55 40,53.8807119 40,52.5 C40,51.1192881 38.8807119,50 37.5,50 L8.5,50 Z M8.5,47 L37.5,47 C40.5375661,47 43,49.4624339 43,52.5 C43,55.5375661 40.5375661,58 37.5,58 L8.5,58 C5.46243388,58 3,55.5375661 3,52.5 C3,49.4624339 5.46243388,47 8.5,47 Z" id="Rectangle-4"></path>
            <path d="M8.5,42 C7.11928813,42 6,43.1192881 6,44.5 C6,45.8807119 7.11928813,47 8.5,47 L37.5,47 C38.8807119,47 40,45.8807119 40,44.5 C40,43.1192881 38.8807119,42 37.5,42 L8.5,42 Z M8.5,39 L37.5,39 C40.5375661,39 43,41.4624339 43,44.5 C43,47.5375661 40.5375661,50 37.5,50 L8.5,50 C5.46243388,50 3,47.5375661 3,44.5 C3,41.4624339 5.46243388,39 8.5,39 Z" id="Rectangle-4"></path>
            <path d="M8.5,34 C7.11928813,34 6,35.1192881 6,36.5 C6,37.8807119 7.11928813,39 8.5,39 L37.5,39 C38.8807119,39 40,37.8807119 40,36.5 C40,35.1192881 38.8807119,34 37.5,34 L8.5,34 Z M8.5,31 L37.5,31 C40.5375661,31 43,33.4624339 43,36.5 C43,39.5375661 40.5375661,42 37.5,42 L8.5,42 C5.46243388,42 3,39.5375661 3,36.5 C3,33.4624339 5.46243388,31 8.5,31 Z" id="Rectangle-4"></path>
        </g>
    </g>
</svg>