<?xml version="1.0" encoding="UTF-8"?>
<svg width="100px" height="100px" viewBox="0 0 100 100" version="1.1" xmlns="http://www.w3.org/2000/svg" xmlns:xlink="http://www.w3.org/1999/xlink">
    <!-- Generator: Sketch 49 (51002) - http://www.bohemiancoding.com/sketch -->
    <title>misc</title>
    <desc>Created with Sketch.</desc>
    <defs></defs>
    <g id="misc" stroke="none" stroke-width="1" fill="none" fill-rule="evenodd">
        <g transform="translate(20.000000, 43.000000)" fill="#1186C9" fill-rule="nonzero" id="Oval-8">
            <path d="M7.5,15 C3.35786438,15 0,11.6421356 0,7.5 C0,3.35786438 3.35786438,0 7.5,0 C11.6421356,0 15,3.35786438 15,7.5 C15,11.6421356 11.6421356,15 7.5,15 Z M7.5,11 C9.43299662,11 11,9.43299662 11,7.5 C11,5.56700338 9.43299662,4 7.5,4 C5.56700338,4 4,5.56700338 4,7.5 C4,9.43299662 5.56700338,11 7.5,11 Z"></path>
            <path d="M30.5,15 C26.3578644,15 23,11.6421356 23,7.5 C23,3.35786438 26.3578644,0 30.5,0 C34.6421356,0 38,3.35786438 38,7.5 C38,11.6421356 34.6421356,15 30.5,15 Z M30.5,11 C32.4329966,11 34,9.43299662 34,7.5 C34,5.56700338 32.4329966,4 30.5,4 C28.5670034,4 27,5.56700338 27,7.5 C27,9.43299662 28.5670034,11 30.5,11 Z"></path>
            <path d="M52.5,15 C48.3578644,15 45,11.6421356 45,7.5 C45,3.35786438 48.3578644,0 52.5,0 C56.6421356,0 60,3.35786438 60,7.5 C60,11.6421356 56.6421356,15 52.5,15 Z M52.5,11 C54.4329966,11 56,9.43299662 56,7.5 C56,5.56700338 54.4329966,4 52.5,4 C50.5670034,4 49,5.56700338 49,7.5 C49,9.43299662 50.5670034,11 52.5,11 Z"></path>
        </g>
    </g>
</svg>