<?xml version="1.0" encoding="UTF-8"?>
<svg width="100px" height="100px" viewBox="0 0 100 100" version="1.1" xmlns="http://www.w3.org/2000/svg" xmlns:xlink="http://www.w3.org/1999/xlink">
    <!-- Generator: Sketch 49 (51002) - http://www.bohemiancoding.com/sketch -->
    <title>o</title>
    <desc>Created with Sketch.</desc>
    <defs></defs>
    <g id="o" stroke="none" stroke-width="1" fill="none" fill-rule="evenodd">
        <path d="M50,34.84 C52.9760149,34.84 55.567989,35.5039934 57.776,36.832 C59.984011,38.1600066 61.687994,40.0479878 62.888,42.496 C64.088006,44.9440122 64.688,47.8319834 64.688,51.16 C64.688,54.4880166 64.088006,57.3759878 62.888,59.824 C61.687994,62.2720122 59.984011,64.1599934 57.776,65.488 C55.567989,66.8160066 52.9760149,67.48 50,67.48 C47.0239851,67.48 44.432011,66.8160066 42.224,65.488 C40.015989,64.1599934 38.312006,62.2720122 37.112,59.824 C35.911994,57.3759878 35.312,54.4880166 35.312,51.16 C35.312,47.8319834 35.911994,44.9440122 37.112,42.496 C38.312006,40.0479878 40.015989,38.1600066 42.224,36.832 C44.432011,35.5039934 47.0239851,34.84 50,34.84 Z M50,38.44 C46.7039835,38.44 44.1040095,39.5679887 42.2,41.824 C40.2959905,44.0800113 39.344,47.1919802 39.344,51.16 C39.344,55.1280198 40.2959905,58.2399887 42.2,60.496 C44.1040095,62.7520113 46.7039835,63.88 50,63.88 C53.2960165,63.88 55.8959905,62.7520113 57.8,60.496 C59.7040095,58.2399887 60.656,55.1280198 60.656,51.16 C60.656,47.1919802 59.7040095,44.0800113 57.8,41.824 C55.8959905,39.5679887 53.2960165,38.44 50,38.44 Z" id="O" fill="#1186C9"></path>
    </g>
</svg>