<?xml version="1.0" encoding="UTF-8"?>
<svg width="100px" height="100px" viewBox="0 0 100 100" version="1.1" xmlns="http://www.w3.org/2000/svg" xmlns:xlink="http://www.w3.org/1999/xlink">
    <!-- Generator: Sketch 49 (51002) - http://www.bohemiancoding.com/sketch -->
    <title>p</title>
    <desc>Created with Sketch.</desc>
    <defs></defs>
    <g id="p" stroke="none" stroke-width="1" fill="none" fill-rule="evenodd">
        <path d="M51.728,35.32 C54.928016,35.32 57.5039902,36.1919913 59.456,37.936 C61.4080098,39.6800087 62.384,42.0239853 62.384,44.968 C62.384,47.9120147 61.4080098,50.2559913 59.456,52 C57.5039902,53.7440087 54.928016,54.616 51.728,54.616 L44.384,54.616 L44.384,67 L40.544,67 L40.544,35.32 L51.728,35.32 Z M51.152,51.016 C53.6160123,51.016 55.4319942,50.512005 56.6,49.504 C57.7680058,48.495995 58.352,46.9840101 58.352,44.968 C58.352,42.9519899 57.7680058,41.440005 56.6,40.432 C55.4319942,39.423995 53.6160123,38.92 51.152,38.92 L44.384,38.92 L44.384,51.016 L51.152,51.016 Z" id="P" fill="#1186C9"></path>
    </g>
</svg>