<?xml version="1.0" encoding="UTF-8"?>
<svg width="100px" height="100px" viewBox="0 0 100 100" version="1.1" xmlns="http://www.w3.org/2000/svg" xmlns:xlink="http://www.w3.org/1999/xlink">
    <!-- Generator: Sketch 49 (51002) - http://www.bohemiancoding.com/sketch -->
    <title>pets</title>
    <desc>Created with Sketch.</desc>
    <defs></defs>
    <g id="pets" stroke="none" stroke-width="1" fill="none" fill-rule="evenodd">
        <g transform="translate(14.000000, 21.000000)" fill="#1186C9" fill-rule="nonzero">
            <path d="M19.463674,32.1086496 C25.3019024,32.1086496 27.8910866,30.7439562 27.8910866,26.9685065 C27.8910866,21.7881026 23.6160098,15.6882205 19.463674,15.6882205 C15.3113382,15.6882205 11.0362614,21.7881026 11.0362614,26.9685065 C11.0362614,30.7439562 13.6254456,32.1086496 19.463674,32.1086496 Z M19.463674,33.1086496 C14.2570578,33.1086496 10.0362614,32.0551676 10.0362614,26.9685065 C10.0362614,21.8818455 14.2570578,14.6882205 19.463674,14.6882205 C24.6702902,14.6882205 28.8910866,21.8818455 28.8910866,26.9685065 C28.8910866,32.0551676 24.6702902,33.1086496 19.463674,33.1086496 Z" id="Oval-4" transform="translate(19.463674, 23.898435) rotate(-4.000000) translate(-19.463674, -23.898435) "></path>
            <path d="M19.463674,33.1086496 C24.6702902,33.1086496 28.8910866,32.0551676 28.8910866,26.9685065 C28.8910866,21.8818455 24.6702902,14.6882205 19.463674,14.6882205 C14.2570578,14.6882205 10.0362614,21.8818455 10.0362614,26.9685065 C10.0362614,32.0551676 14.2570578,33.1086496 19.463674,33.1086496 Z M19.463674,35.1086496 C12.1871884,35.1086496 8.03626141,32.9208011 8.03626141,26.9685065 C8.03626141,20.3125422 13.3797354,12.6882205 19.463674,12.6882205 C25.5476127,12.6882205 30.8910866,20.3125422 30.8910866,26.9685065 C30.8910866,32.9208011 26.7401596,35.1086496 19.463674,35.1086496 Z" id="Oval-4" transform="translate(19.463674, 23.898435) rotate(-4.000000) translate(-19.463674, -23.898435) "></path>
            <path d="M23.5985909,8.09272492 C24.4848801,8.09272492 25.2921374,7.10690131 25.2921374,5.8033626 C25.2921374,4.49982389 24.4848801,3.51400028 23.5985909,3.51400028 C22.7123018,3.51400028 21.9050445,4.49982389 21.9050445,5.8033626 C21.9050445,7.10690131 22.7123018,8.09272492 23.5985909,8.09272492 Z M23.5985909,9.09272492 C22.1109863,9.09272492 20.9050445,7.62002725 20.9050445,5.8033626 C20.9050445,3.98669795 22.1109863,2.51400028 23.5985909,2.51400028 C25.0861956,2.51400028 26.2921374,3.98669795 26.2921374,5.8033626 C26.2921374,7.62002725 25.0861956,9.09272492 23.5985909,9.09272492 Z" id="Oval-5" transform="translate(23.598591, 5.803363) rotate(-4.000000) translate(-23.598591, -5.803363) "></path>
            <path d="M23.5985909,9.09272492 C25.0861956,9.09272492 26.2921374,7.62002725 26.2921374,5.8033626 C26.2921374,3.98669795 25.0861956,2.51400028 23.5985909,2.51400028 C22.1109863,2.51400028 20.9050445,3.98669795 20.9050445,5.8033626 C20.9050445,7.62002725 22.1109863,9.09272492 23.5985909,9.09272492 Z M23.5985909,11.0927249 C20.9083554,11.0927249 18.9050445,8.64627911 18.9050445,5.8033626 C18.9050445,2.96044609 20.9083554,0.514000278 23.5985909,0.514000278 C26.2888265,0.514000278 28.2921374,2.96044609 28.2921374,5.8033626 C28.2921374,8.64627911 26.2888265,11.0927249 23.5985909,11.0927249 Z" id="Oval-5" transform="translate(23.598591, 5.803363) rotate(-4.000000) translate(-23.598591, -5.803363) "></path>
            <path d="M12.8506505,8.84429413 C13.7369397,8.84429413 14.5441969,7.85847053 14.5441969,6.55493181 C14.5441969,5.2513931 13.7369397,4.26556949 12.8506505,4.26556949 C11.9643613,4.26556949 11.157104,5.2513931 11.157104,6.55493181 C11.157104,7.85847053 11.9643613,8.84429413 12.8506505,8.84429413 Z M12.8506505,9.84429413 C11.3630458,9.84429413 10.157104,8.37159646 10.157104,6.55493181 C10.157104,4.73826716 11.3630458,3.26556949 12.8506505,3.26556949 C14.3382551,3.26556949 15.5441969,4.73826716 15.5441969,6.55493181 C15.5441969,8.37159646 14.3382551,9.84429413 12.8506505,9.84429413 Z" id="Oval-5" transform="translate(12.850650, 6.554932) rotate(-4.000000) translate(-12.850650, -6.554932) "></path>
            <path d="M12.8506505,9.84429413 C14.3382551,9.84429413 15.5441969,8.37159646 15.5441969,6.55493181 C15.5441969,4.73826716 14.3382551,3.26556949 12.8506505,3.26556949 C11.3630458,3.26556949 10.157104,4.73826716 10.157104,6.55493181 C10.157104,8.37159646 11.3630458,9.84429413 12.8506505,9.84429413 Z M12.8506505,11.8442941 C10.1604149,11.8442941 8.15710402,9.39784832 8.15710402,6.55493181 C8.15710402,3.7120153 10.1604149,1.26556949 12.8506505,1.26556949 C15.540886,1.26556949 17.5441969,3.7120153 17.5441969,6.55493181 C17.5441969,9.39784832 15.540886,11.8442941 12.8506505,11.8442941 Z" id="Oval-5" transform="translate(12.850650, 6.554932) rotate(-4.000000) translate(-12.850650, -6.554932) "></path>
            <path d="M32.2102366,15.4042871 C33.0965258,15.4042871 33.9037831,14.4184634 33.9037831,13.1149247 C33.9037831,11.811386 33.0965258,10.8255624 32.2102366,10.8255624 C31.3239475,10.8255624 30.5166902,11.811386 30.5166902,13.1149247 C30.5166902,14.4184634 31.3239475,15.4042871 32.2102366,15.4042871 Z M32.2102366,16.4042871 C30.722632,16.4042871 29.5166902,14.9315894 29.5166902,13.1149247 C29.5166902,11.2982601 30.722632,9.82556241 32.2102366,9.82556241 C33.6978413,9.82556241 34.9037831,11.2982601 34.9037831,13.1149247 C34.9037831,14.9315894 33.6978413,16.4042871 32.2102366,16.4042871 Z" id="Oval-5" transform="translate(32.210237, 13.114925) rotate(-4.000000) translate(-32.210237, -13.114925) "></path>
            <path d="M32.2102366,16.4042871 C33.6978413,16.4042871 34.9037831,14.9315894 34.9037831,13.1149247 C34.9037831,11.2982601 33.6978413,9.82556241 32.2102366,9.82556241 C30.722632,9.82556241 29.5166902,11.2982601 29.5166902,13.1149247 C29.5166902,14.9315894 30.722632,16.4042871 32.2102366,16.4042871 Z M32.2102366,18.4042871 C29.5200011,18.4042871 27.5166902,15.9578412 27.5166902,13.1149247 C27.5166902,10.2720082 29.5200011,7.82556241 32.2102366,7.82556241 C34.9004722,7.82556241 36.9037831,10.2720082 36.9037831,13.1149247 C36.9037831,15.9578412 34.9004722,18.4042871 32.2102366,18.4042871 Z" id="Oval-5" transform="translate(32.210237, 13.114925) rotate(-4.000000) translate(-32.210237, -13.114925) "></path>
            <path d="M5.34038549,17.2832101 C6.22667467,17.2832101 7.03393195,16.2973865 7.03393195,14.9938478 C7.03393195,13.690309 6.22667467,12.7044854 5.34038549,12.7044854 C4.45409631,12.7044854 3.64683903,13.690309 3.64683903,14.9938478 C3.64683903,16.2973865 4.45409631,17.2832101 5.34038549,17.2832101 Z M5.34038549,18.2832101 C3.85278086,18.2832101 2.64683903,16.8105124 2.64683903,14.9938478 C2.64683903,13.1771831 3.85278086,11.7044854 5.34038549,11.7044854 C6.82799012,11.7044854 8.03393195,13.1771831 8.03393195,14.9938478 C8.03393195,16.8105124 6.82799012,18.2832101 5.34038549,18.2832101 Z" id="Oval-5" transform="translate(5.340385, 14.993848) rotate(-4.000000) translate(-5.340385, -14.993848) "></path>
            <path d="M5.34038549,18.2832101 C6.82799012,18.2832101 8.03393195,16.8105124 8.03393195,14.9938478 C8.03393195,13.1771831 6.82799012,11.7044854 5.34038549,11.7044854 C3.85278086,11.7044854 2.64683903,13.1771831 2.64683903,14.9938478 C2.64683903,16.8105124 3.85278086,18.2832101 5.34038549,18.2832101 Z M5.34038549,20.2832101 C2.65014995,20.2832101 0.646839032,17.8367643 0.646839032,14.9938478 C0.646839032,12.1509312 2.65014995,9.70448544 5.34038549,9.70448544 C8.03062103,9.70448544 10.033932,12.1509312 10.033932,14.9938478 C10.033932,17.8367643 8.03062103,20.2832101 5.34038549,20.2832101 Z" id="Oval-5" transform="translate(5.340385, 14.993848) rotate(-4.000000) translate(-5.340385, -14.993848) "></path>
            <path d="M52.5180698,51.9382519 C58.3562982,51.9382519 60.9454824,50.5735585 60.9454824,46.7981089 C60.9454824,41.6177049 56.6704056,35.5178229 52.5180698,35.5178229 C48.365734,35.5178229 44.0906572,41.6177049 44.0906572,46.7981089 C44.0906572,50.5735585 46.6798414,51.9382519 52.5180698,51.9382519 Z M52.5180698,52.9382519 C47.3114536,52.9382519 43.0906572,51.8847699 43.0906572,46.7981089 C43.0906572,41.7114479 47.3114536,34.5178229 52.5180698,34.5178229 C57.724686,34.5178229 61.9454824,41.7114479 61.9454824,46.7981089 C61.9454824,51.8847699 57.724686,52.9382519 52.5180698,52.9382519 Z" id="Oval-4" transform="translate(52.518070, 43.728037) rotate(15.000000) translate(-52.518070, -43.728037) "></path>
            <path d="M52.5180698,52.9382519 C57.724686,52.9382519 61.9454824,51.8847699 61.9454824,46.7981089 C61.9454824,41.7114479 57.724686,34.5178229 52.5180698,34.5178229 C47.3114536,34.5178229 43.0906572,41.7114479 43.0906572,46.7981089 C43.0906572,51.8847699 47.3114536,52.9382519 52.5180698,52.9382519 Z M52.5180698,54.9382519 C45.2415842,54.9382519 41.0906572,52.7504035 41.0906572,46.7981089 C41.0906572,40.1421446 46.4341311,32.5178229 52.5180698,32.5178229 C58.6020084,32.5178229 63.9454824,40.1421446 63.9454824,46.7981089 C63.9454824,52.7504035 59.7945554,54.9382519 52.5180698,54.9382519 Z" id="Oval-4" transform="translate(52.518070, 43.728037) rotate(15.000000) translate(-52.518070, -43.728037) "></path>
            <path d="M62.3188899,30.2543699 C63.2051791,30.2543699 64.0124363,29.2685463 64.0124363,27.9650075 C64.0124363,26.6614688 63.2051791,25.6756452 62.3188899,25.6756452 C61.4326007,25.6756452 60.6253434,26.6614688 60.6253434,27.9650075 C60.6253434,29.2685463 61.4326007,30.2543699 62.3188899,30.2543699 Z M62.3188899,31.2543699 C60.8312853,31.2543699 59.6253434,29.7816722 59.6253434,27.9650075 C59.6253434,26.1483429 60.8312853,24.6756452 62.3188899,24.6756452 C63.8064945,24.6756452 65.0124363,26.1483429 65.0124363,27.9650075 C65.0124363,29.7816722 63.8064945,31.2543699 62.3188899,31.2543699 Z" id="Oval-5" transform="translate(62.318890, 27.965008) rotate(15.000000) translate(-62.318890, -27.965008) "></path>
            <path d="M62.3188899,31.2543699 C63.8064945,31.2543699 65.0124363,29.7816722 65.0124363,27.9650075 C65.0124363,26.1483429 63.8064945,24.6756452 62.3188899,24.6756452 C60.8312853,24.6756452 59.6253434,26.1483429 59.6253434,27.9650075 C59.6253434,29.7816722 60.8312853,31.2543699 62.3188899,31.2543699 Z M62.3188899,33.2543699 C59.6286543,33.2543699 57.6253434,30.8079241 57.6253434,27.9650075 C57.6253434,25.122091 59.6286543,22.6756452 62.3188899,22.6756452 C65.0091254,22.6756452 67.0124363,25.122091 67.0124363,27.9650075 C67.0124363,30.8079241 65.0091254,33.2543699 62.3188899,33.2543699 Z" id="Oval-5" transform="translate(62.318890, 27.965008) rotate(15.000000) translate(-62.318890, -27.965008) "></path>
            <path d="M51.9118255,27.4658054 C52.7981147,27.4658054 53.605372,26.4799818 53.605372,25.1764431 C53.605372,23.8729043 52.7981147,22.8870807 51.9118255,22.8870807 C51.0255364,22.8870807 50.2182791,23.8729043 50.2182791,25.1764431 C50.2182791,26.4799818 51.0255364,27.4658054 51.9118255,27.4658054 Z M51.9118255,28.4658054 C50.4242209,28.4658054 49.2182791,26.9931077 49.2182791,25.1764431 C49.2182791,23.3597784 50.4242209,21.8870807 51.9118255,21.8870807 C53.3994302,21.8870807 54.605372,23.3597784 54.605372,25.1764431 C54.605372,26.9931077 53.3994302,28.4658054 51.9118255,28.4658054 Z" id="Oval-5" transform="translate(51.911826, 25.176443) rotate(15.000000) translate(-51.911826, -25.176443) "></path>
            <path d="M51.9118255,28.4658054 C53.3994302,28.4658054 54.605372,26.9931077 54.605372,25.1764431 C54.605372,23.3597784 53.3994302,21.8870807 51.9118255,21.8870807 C50.4242209,21.8870807 49.2182791,23.3597784 49.2182791,25.1764431 C49.2182791,26.9931077 50.4242209,28.4658054 51.9118255,28.4658054 Z M51.9118255,30.4658054 C49.22159,30.4658054 47.2182791,28.0193596 47.2182791,25.1764431 C47.2182791,22.3335265 49.22159,19.8870807 51.9118255,19.8870807 C54.6020611,19.8870807 56.605372,22.3335265 56.605372,25.1764431 C56.605372,28.0193596 54.6020611,30.4658054 51.9118255,30.4658054 Z" id="Oval-5" transform="translate(51.911826, 25.176443) rotate(15.000000) translate(-51.911826, -25.176443) "></path>
            <path d="M68.0809491,39.9712653 C68.9672383,39.9712653 69.7744955,38.9854417 69.7744955,37.681903 C69.7744955,36.3783642 68.9672383,35.3925406 68.0809491,35.3925406 C67.1946599,35.3925406 66.3874026,36.3783642 66.3874026,37.681903 C66.3874026,38.9854417 67.1946599,39.9712653 68.0809491,39.9712653 Z M68.0809491,40.9712653 C66.5933444,40.9712653 65.3874026,39.4985676 65.3874026,37.681903 C65.3874026,35.8652383 66.5933444,34.3925406 68.0809491,34.3925406 C69.5685537,34.3925406 70.7744955,35.8652383 70.7744955,37.681903 C70.7744955,39.4985676 69.5685537,40.9712653 68.0809491,40.9712653 Z" id="Oval-5" transform="translate(68.080949, 37.681903) rotate(15.000000) translate(-68.080949, -37.681903) "></path>
            <path d="M68.0809491,40.9712653 C69.5685537,40.9712653 70.7744955,39.4985676 70.7744955,37.681903 C70.7744955,35.8652383 69.5685537,34.3925406 68.0809491,34.3925406 C66.5933444,34.3925406 65.3874026,35.8652383 65.3874026,37.681903 C65.3874026,39.4985676 66.5933444,40.9712653 68.0809491,40.9712653 Z M68.0809491,42.9712653 C65.3907135,42.9712653 63.3874026,40.5248195 63.3874026,37.681903 C63.3874026,34.8389864 65.3907135,32.3925406 68.0809491,32.3925406 C70.7711846,32.3925406 72.7744955,34.8389864 72.7744955,37.681903 C72.7744955,40.5248195 70.7711846,42.9712653 68.0809491,42.9712653 Z" id="Oval-5" transform="translate(68.080949, 37.681903) rotate(15.000000) translate(-68.080949, -37.681903) "></path>
            <path d="M42.0632882,32.9998541 C42.9495774,32.9998541 43.7568346,32.0140304 43.7568346,30.7104917 C43.7568346,29.406953 42.9495774,28.4211294 42.0632882,28.4211294 C41.176999,28.4211294 40.3697417,29.406953 40.3697417,30.7104917 C40.3697417,32.0140304 41.176999,32.9998541 42.0632882,32.9998541 Z M42.0632882,33.9998541 C40.5756836,33.9998541 39.3697417,32.5271564 39.3697417,30.7104917 C39.3697417,28.8938271 40.5756836,27.4211294 42.0632882,27.4211294 C43.5508928,27.4211294 44.7568346,28.8938271 44.7568346,30.7104917 C44.7568346,32.5271564 43.5508928,33.9998541 42.0632882,33.9998541 Z" id="Oval-5" transform="translate(42.063288, 30.710492) rotate(15.000000) translate(-42.063288, -30.710492) "></path>
            <path d="M42.0632882,33.9998541 C43.5508928,33.9998541 44.7568346,32.5271564 44.7568346,30.7104917 C44.7568346,28.8938271 43.5508928,27.4211294 42.0632882,27.4211294 C40.5756836,27.4211294 39.3697417,28.8938271 39.3697417,30.7104917 C39.3697417,32.5271564 40.5756836,33.9998541 42.0632882,33.9998541 Z M42.0632882,35.9998541 C39.3730526,35.9998541 37.3697417,33.5534082 37.3697417,30.7104917 C37.3697417,27.8675752 39.3730526,25.4211294 42.0632882,25.4211294 C44.7535237,25.4211294 46.7568346,27.8675752 46.7568346,30.7104917 C46.7568346,33.5534082 44.7535237,35.9998541 42.0632882,35.9998541 Z" id="Oval-5" transform="translate(42.063288, 30.710492) rotate(15.000000) translate(-42.063288, -30.710492) "></path>
        </g>
    </g>
</svg>