<?xml version="1.0" encoding="UTF-8"?>
<svg width="100px" height="100px" viewBox="0 0 100 100" version="1.1" xmlns="http://www.w3.org/2000/svg" xmlns:xlink="http://www.w3.org/1999/xlink">
    <!-- Generator: Sketch 49 (51002) - http://www.bohemiancoding.com/sketch -->
    <title>q</title>
    <desc>Created with Sketch.</desc>
    <defs></defs>
    <g id="q" stroke="none" stroke-width="1" fill="none" fill-rule="evenodd">
        <path d="M57.776,72.472 C58.9600059,72.472 60.047995,72.3120016 61.04,71.992 C62.032005,71.6719984 62.831997,71.2400027 63.44,70.696 L64.688,74.248 C63.9519963,74.8880032 62.9120067,75.3999981 61.568,75.784 C60.2239933,76.1680019 58.9280062,76.36 57.68,76.36 C55.0559869,76.36 52.8720087,75.664007 51.128,74.272 C49.3839913,72.879993 48.416001,70.584016 48.224,67.384 C45.5679867,67.1279987 43.2720097,66.3120069 41.336,64.936 C39.3999903,63.5599931 37.9120052,61.6960118 36.872,59.344 C35.8319948,56.9919882 35.312,54.2640155 35.312,51.16 C35.312,47.8319834 35.911994,44.9440122 37.112,42.496 C38.312006,40.0479878 40.015989,38.1600066 42.224,36.832 C44.432011,35.5039934 47.0239851,34.84 50,34.84 C52.9760149,34.84 55.567989,35.5039934 57.776,36.832 C59.984011,38.1600066 61.687994,40.0479878 62.888,42.496 C64.088006,44.9440122 64.688,47.8319834 64.688,51.16 C64.688,54.2640155 64.1600053,56.9919882 63.104,59.344 C62.0479947,61.6960118 60.5440098,63.567993 58.592,64.96 C56.6399902,66.352007 54.3360133,67.1599989 51.68,67.384 C51.8400008,69.3680099 52.4559946,70.7119965 53.528,71.416 C54.6000054,72.1200035 56.0159912,72.472 57.776,72.472 Z M39.344,51.16 C39.344,55.1280198 40.2959905,58.2399887 42.2,60.496 C44.1040095,62.7520113 46.7039835,63.88 50,63.88 C53.2960165,63.88 55.8959905,62.7520113 57.8,60.496 C59.7040095,58.2399887 60.656,55.1280198 60.656,51.16 C60.656,47.1919802 59.7040095,44.0800113 57.8,41.824 C55.8959905,39.5679887 53.2960165,38.44 50,38.44 C46.7039835,38.44 44.1040095,39.5679887 42.2,41.824 C40.2959905,44.0800113 39.344,47.1919802 39.344,51.16 Z" id="Q" fill="#1186C9"></path>
    </g>
</svg>