<?xml version="1.0" encoding="UTF-8"?>
<svg width="100px" height="100px" viewBox="0 0 100 100" version="1.1" xmlns="http://www.w3.org/2000/svg" xmlns:xlink="http://www.w3.org/1999/xlink">
    <!-- Generator: Sketch 49 (51002) - http://www.bohemiancoding.com/sketch -->
    <title>r</title>
    <desc>Created with Sketch.</desc>
    <defs></defs>
    <g id="r" stroke="none" stroke-width="1" fill="none" fill-rule="evenodd">
        <path d="M50.648,53.848 L43.064,53.848 L43.064,67 L39.224,67 L39.224,35.32 L51.224,35.32 C54.4560162,35.32 57.0479902,36.1519917 59,37.816 C60.9520098,39.4800083 61.928,41.7359858 61.928,44.584 C61.928,46.8240112 61.3040062,48.7119923 60.056,50.248 C58.8079938,51.7840077 57.0960109,52.8399971 54.92,53.416 L63.848,67 L59.288,67 L50.648,53.848 Z M43.064,50.248 L51.176,50.248 C55.6560224,50.248 57.896,48.3600189 57.896,44.584 C57.896,40.8079811 55.6560224,38.92 51.176,38.92 L43.064,38.92 L43.064,50.248 Z" id="R" fill="#1186C9"></path>
    </g>
</svg>