<?xml version="1.0" encoding="UTF-8"?>
<svg width="100px" height="100px" viewBox="0 0 100 100" version="1.1" xmlns="http://www.w3.org/2000/svg" xmlns:xlink="http://www.w3.org/1999/xlink">
    <!-- Generator: Sketch 49 (51002) - http://www.bohemiancoding.com/sketch -->
    <title>s</title>
    <desc>Created with Sketch.</desc>
    <defs></defs>
    <g id="s" stroke="none" stroke-width="1" fill="none" fill-rule="evenodd">
        <path d="M49.976,34.84 C55.6400283,34.84 59.7199875,37.0799776 62.216,41.56 L58.904,44.248 C57.9439952,42.1359894 56.8000066,40.6400044 55.472,39.76 C54.1439934,38.8799956 52.3280115,38.44 50.024,38.44 C47.5919878,38.44 45.680007,38.943995 44.288,39.952 C42.895993,40.960005 42.2,42.2479922 42.2,43.816 C42.2,44.8400051 42.4719973,45.6879966 43.016,46.36 C43.5600027,47.0320034 44.4639937,47.6159975 45.728,48.112 C46.9920063,48.6080025 48.7439888,49.0479981 50.984,49.432 C55.176021,50.1360035 58.1439913,51.191993 59.888,52.6 C61.6320087,54.008007 62.504,55.9599875 62.504,58.456 C62.504,60.248009 62.000005,61.8239932 60.992,63.184 C59.983995,64.5440068 58.5520093,65.5999962 56.696,66.352 C54.8399907,67.1040038 52.6960122,67.48 50.264,67.48 C47.063984,67.48 44.3360113,66.8560062 42.08,65.608 C39.8239887,64.3599938 38.1040059,62.6960104 36.92,60.616 L40.232,57.928 C41.0960043,59.8160094 42.3679916,61.2799948 44.048,62.32 C45.7280084,63.3600052 47.8319874,63.88 50.36,63.88 C52.8560125,63.88 54.8399926,63.4240046 56.312,62.512 C57.7840074,61.5999954 58.52,60.3120083 58.52,58.648 C58.52,57.239993 57.8800064,56.1200042 56.6,55.288 C55.3199936,54.4559958 53.0480163,53.7520029 49.784,53.176 C45.5599789,52.4399963 42.5680088,51.3840069 40.808,50.008 C39.0479912,48.6319931 38.168,46.7120123 38.168,44.248 C38.168,42.5519915 38.6479952,40.9840072 39.608,39.544 C40.5680048,38.1039928 41.943991,36.9600042 43.736,36.112 C45.528009,35.2639958 47.6079882,34.84 49.976,34.84 Z" id="S" fill="#1186C9"></path>
    </g>
</svg>