<?xml version="1.0" encoding="UTF-8"?>
<svg width="100px" height="100px" viewBox="0 0 100 100" version="1.1" xmlns="http://www.w3.org/2000/svg" xmlns:xlink="http://www.w3.org/1999/xlink">
    <!-- Generator: Sketch 49 (51002) - http://www.bohemiancoding.com/sketch -->
    <title>subscriptions</title>
    <desc>Created with Sketch.</desc>
    <defs></defs>
    <g id="subscriptions" stroke="none" stroke-width="1" fill="none" fill-rule="evenodd">
        <g transform="translate(23.000000, 26.000000)" fill="#1186C9" fill-rule="nonzero">
            <path d="M3,8 L3,46 L51,46 L51,8 L3,8 Z M3,5 L51,5 C52.6568542,5 54,6.34314575 54,8 L54,46 C54,47.6568542 52.6568542,49 51,49 L3,49 C1.34314575,49 0,47.6568542 0,46 L0,8 C0,6.34314575 1.34314575,5 3,5 Z" id="Rectangle-6-Copy-2"></path>
            <path d="M13,0.5 L14,0.5 C14.8284271,0.5 15.5,1.17157288 15.5,2 L15.5,10 C15.5,10.8284271 14.8284271,11.5 14,11.5 L13,11.5 C12.1715729,11.5 11.5,10.8284271 11.5,10 L11.5,2 C11.5,1.17157288 12.1715729,0.5 13,0.5 Z" id="Rectangle-6-Copy-2"></path>
            <path d="M38,0.5 L39,0.5 C39.8284271,0.5 40.5,1.17157288 40.5,2 L40.5,10 C40.5,10.8284271 39.8284271,11.5 39,11.5 L38,11.5 C37.1715729,11.5 36.5,10.8284271 36.5,10 L36.5,2 C36.5,1.17157288 37.1715729,0.5 38,0.5 Z" id="Rectangle-6-Copy-2"></path>
            <path d="M26.0344867,38.5344867 C25.2060596,38.5344867 24.5344867,37.8629139 24.5344867,37.0344867 C24.5344867,36.2060596 25.2060596,35.5344867 26.0344867,35.5344867 C30.1766224,35.5344867 33.5344867,32.1766224 33.5344867,28.0344867 C33.5344867,23.8923511 30.1766224,20.5344867 26.0344867,20.5344867 C21.8923511,20.5344867 18.5344867,23.8923511 18.5344867,28.0344867 C18.5344867,28.8629139 17.8629139,29.5344867 17.0344867,29.5344867 C16.2060596,29.5344867 15.5344867,28.8629139 15.5344867,28.0344867 C15.5344867,22.2354969 20.2354969,17.5344867 26.0344867,17.5344867 C31.8334766,17.5344867 36.5344867,22.2354969 36.5344867,28.0344867 C36.5344867,33.8334766 31.8334766,38.5344867 26.0344867,38.5344867 Z" id="Oval-7" transform="translate(26.034487, 28.034487) rotate(-64.000000) translate(-26.034487, -28.034487) "></path>
            <path d="M34.3695084,31.5321448 L30.8360783,34.6544585 C30.2152917,35.2030163 29.2673509,35.1444632 28.7187932,34.5236767 C28.1702355,33.9028901 28.2287885,32.9549493 28.8495751,32.4063916 L33.3762568,28.4063916 C33.9435504,27.9051029 34.7954664,27.9051029 35.36276,28.4063916 L39.8360783,32.3592371 C40.4568648,32.9077948 40.5154179,33.8557356 39.9668601,34.4765221 C39.4183024,35.0973087 38.4703616,35.1558617 37.8495751,34.607304 L34.3695084,31.5321448 Z" id="Path-5" transform="translate(34.342827, 31.530434) rotate(199.000000) translate(-34.342827, -31.530434) "></path>
        </g>
    </g>
</svg>