<?xml version="1.0" encoding="UTF-8"?>
<svg width="100px" height="100px" viewBox="0 0 100 100" version="1.1" xmlns="http://www.w3.org/2000/svg" xmlns:xlink="http://www.w3.org/1999/xlink">
    <!-- Generator: Sketch 49 (51002) - http://www.bohemiancoding.com/sketch -->
    <title>u</title>
    <desc>Created with Sketch.</desc>
    <defs></defs>
    <g id="u" stroke="none" stroke-width="1" fill="none" fill-rule="evenodd">
        <path d="M62.432,55.192 C62.432,59.2560203 61.3680106,62.3199897 59.24,64.384 C57.1119894,66.4480103 54.0320202,67.48 50,67.48 C45.9679798,67.48 42.8880106,66.4400104 40.76,64.36 C38.6319894,62.2799896 37.568,59.2240202 37.568,55.192 L37.568,35.32 L41.408,35.32 L41.408,54.232 C41.408,57.5600166 42.103993,59.9999922 43.496,61.552 C44.888007,63.1040078 47.0559853,63.88 50,63.88 C52.9440147,63.88 55.111993,63.1040078 56.504,61.552 C57.896007,59.9999922 58.592,57.5600166 58.592,54.232 L58.592,35.32 L62.432,35.32 L62.432,55.192 Z" id="U" fill="#1186C9"></path>
    </g>
</svg>